<svg xmlns="http://www.w3.org/2000/svg" version="1.0" width="1276.2857141884006" height="122.28570976062679" preserveAspectRatio="xMidYMid meet"><rect id="backgroundrect" width="100%" height="100%" x="0" y="0" fill="none" stroke="none" class="" style=""/>
<metadata>
Created by potrace 1.15, written by Peter Selinger 2001-2017
</metadata>

<g class="currentLayer" style=""><title>Layer 1</title><g transform="translate(0,640) scale(0.10000000149011612,-0.10000000149011612) " fill="#000000" stroke="none" id="svg_1" class="">
<path d="M6318.179661571732,6341.045710880471 c-131.35171580314636,-2.616899750456092 -227.87532514333725,-7.850699251368276 -226.8802363872528,-12.212198835461763 c0.9950887560844421,-4.361499584093487 27.86248517036438,-16.57369841955525 59.70532536506653,-27.913597338198315 c84.58254426717758,-27.041297421379618 134.3369820713997,-50.593395175484446 160.20928972959518,-75.89009276322668 l23.88213014602661,-21.807497920467434 l-23.88213014602661,-13.956798669099157 c-25.872307658195496,-14.829098585917855 -134.3369820713997,-30.530497088654407 -208.96863877773285,-31.402797005473104 c-66.67094665765762,0 -67.66603541374207,-13.956798669099157 0,-20.935198003648736 c76.62183421850204,-7.850699251368276 150.25840216875076,-39.25349625684138 193.04721868038177,-82.86849209777625 c34.828106462955475,-35.76429658956659 66.67094665765762,-105.54828993506237 68.66112416982651,-148.29098585917853 c0,-12.212198835461763 3.9803550243377686,-30.530497088654407 8.95579880475998,-40.12579617366008 c9.950887560844421,-21.807497920467434 15.921420097351074,-9.59529908500567 23.88213014602661,50.593395175484446 c15.921420097351074,116.88818885370544 108.4646744132042,205.86278036921257 242.80165648460388,232.9040777905922 c27.86248517036438,6.106099417730881 51.74461531639099,13.956798669099157 51.74461531639099,18.318298253192644 c0,4.361499584093487 -48.759349048137665,7.850699251368276 -108.4646744132042,7.850699251368276 c-58.710236608982086,0 -121.40082824230194,4.361499584093487 -139.3124258518219,9.59529908500567 l-31.84284019470215,9.59529908500567 l19.901775121688843,19.19059817001134 c18.9066863656044,17.445998336373947 114.43520694971085,61.060994177308814 222.89988136291504,100.3144904341502 c26.867396414279938,10.467599001824368 45.77408277988434,21.807497920467434 41.79372775554657,27.041297421379618 c-2.9852662682533264,5.233799500912185 -36.81828397512436,7.850699251368276 -77.61692297458649,6.978399334549579 c-39.803550243377686,-0.8722999168186982 -174.14053231477737,-4.361499584093487 -300.5168043375015,-6.978399334549579 z" id="svg_2"/>
<path d="M6831.645459711304,5981.658145151168 c-69.65621292591095,-10.467599001824368 -115.43029570579529,-43.61499584093487 -155.23384594917297,-112.52668926961195 c-36.81828397512436,-63.677893927764906 -67.66603541374207,-182.31068261510774 -46.76917153596878,-182.31068261510774 c3.9803550243377686,0 21.891952633857727,19.19059817001134 39.803550243377686,42.74269592411617 c31.84284019470215,41.87039600729747 121.40082824230194,120.37738852098023 212.94899380207062,188.41678203283863 c25.872307658195496,19.19059817001134 47.76426029205322,40.12579617366008 49.75443780422211,47.104195508209656 c3.9803550243377686,16.57369841955525 -45.77408277988434,25.296697587742223 -100.50396436452866,16.57369841955525 z" id="svg_3"/>
<path d="M5820.635283529511,5965.956746648431 c-4.975443780422211,-7.850699251368276 7.960710048675537,-24.424397670923526 40.79863899946213,-50.593395175484446 c122.39591699838638,-97.6975906836941 202.9981062412262,-170.098483779646 229.86550265550613,-205.86278036921257 c48.759349048137665,-68.03939351185839 55.72497034072876,-45.35959567457226 21.891952633857727,65.42249376140231 c-26.867396414279938,87.22999168186973 -64.68076914548874,139.56798669099157 -122.39591699838638,169.22618386282727 c-52.73970407247543,27.041297421379618 -157.22402346134186,40.12579617366008 -170.1601772904396,21.807497920467434 z" id="svg_4"/>
<path d="M11751.364269792786,5864.769956297463 c-270.66414165496826,-72.40089309595189 -1106.5386967658997,-175.33228328055816 -1915.5458554625511,-234.64867762422958 c-117.42047321796417,-8.722999168186973 -159.21420097351074,-14.829098585917855 -159.21420097351074,-22.67979783728613 c0,-4.361499584093487 125.38118326663971,-7.850699251368276 296.53644931316376,-7.850699251368276 c1119.4748505949974,0 2266.812186360359,-111.65438935279326 2584.2454995512962,-250.35007612696614 c56.7200590968132,-25.296697587742223 114.43520694971085,-69.78399334549579 114.43520694971085,-88.97459151550713 c0,-8.722999168186973 -7.960710048675537,-6.106099417730881 -26.867396414279938,9.59529908500567 c-98.51378685235977,80.25159234732016 -396.04532492160797,147.41868594235984 -853.7861527204514,193.65058153375082 c-572.1760347485542,57.571794510034024 -1271.723430275917,79.37929243050147 -2328.5076892375946,72.40089309595189 c-1173.2096434235573,-7.850699251368276 -2049.882837533951,-47.104195508209656 -2454.8839612603188,-111.65438935279326 c-123.39100575447083,-19.19059817001134 -273.6494079232216,-22.67979783728613 -338.3301770687103,-6.978399334549579 c-64.68076914548874,14.829098585917855 -132.3468045592308,47.976495425028354 -173.14544355869293,83.74079201459494 c-44.778994023799896,40.998096090478775 -91.54816555976868,123.86658818825502 -99.50887560844421,179.69378286465167 c-7.960710048675537,50.593395175484446 -19.901775121688843,52.33799500912184 -28.857573926448822,4.361499584093487 c-21.891952633857727,-112.52668926961195 -91.54816555976868,-198.0120811178443 -202.00301748514175,-244.24397670923526 c-60.70041412115097,-25.296697587742223 -77.61692297458649,-27.913597338198315 -181.10615360736847,-31.402797005473104 c-87.56781053543091,-2.616899750456092 -140.30751460790634,0.8722999168186982 -223.89497011899948,14.829098585917855 c-395.05023616552353,64.5501938445836 -1265.7528977394104,103.80369010142499 -2462.8446713089943,111.65438935279326 c-942.3490520119667,6.106099417730881 -1568.2598795890808,-9.59529908500567 -2089.6863877773285,-50.593395175484446 c-565.2104134559631,-44.487295757753564 -946.3294070363045,-116.01588893688674 -1066.735146522522,-200.6289808683004 c-40.79863899946213,-27.913597338198315 -52.73970407247543,-22.67979783728613 -14.926331341266632,6.978399334549579 c178.12088733911514,143.92948627508505 1079.6713003516197,259.0730752951531 2270.792541384697,290.47587230062624 c175.13562107086182,4.361499584093487 402.0158574581146,8.722999168186973 505.5050880908966,8.722999168186973 c195.03739619255066,0 246.78201150894165,11.339898918643065 98.51378685235977,20.935198003648736 c-162.19946724176407,11.339898918643065 -772.1888747215271,66.294793678221 -977.1771584749222,88.10229159868842 c-458.7359165549278,49.72109525866575 -861.7468627691269,110.78208943597457 -1026.9315962791443,156.14168511054683 l-77.61692297458649,20.935198003648736 l22.88704138994217,-26.16899750456092 c77.61692297458649,-88.97459151550713 87.56781053543091,-110.78208943597457 65.67585790157318,-145.67408610872246 c-24.877218902111053,-40.998096090478775 -89.55798804759979,-59.31639434367142 -287.5806505084038,-83.74079201459494 c-413.95692253112793,-50.593395175484446 -621.9304725527763,-114.27128910324936 -683.6259754300117,-210.22427995330605 c-27.86248517036438,-42.74269592411617 -28.857573926448822,-82.86849209777625 -1.9901775121688847,-130.84498752280462 c31.84284019470215,-58.44409442685272 33.83301770687103,-59.31639434367142 150.25840216875076,-39.25349625684138 c358.23195219039917,62.80559401094621 1045.8382826447487,122.99428827143632 1838.924021244049,162.2477845282777 c1581.1960334181786,77.63469259686406 2916.6051440835,54.082594842759235 3756.460054218769,-66.294793678221 c282.60520672798157,-40.998096090478775 390.0747923851013,-29.65819717183571 486.5984017252922,51.46569509230314 c43.783905267715454,37.508896423203986 91.54816555976868,118.63278868734284 101.4990531206131,173.58768344692078 c7.960710048675537,45.35959567457226 18.9066863656044,41.87039600729747 27.86248517036438,-6.978399334549579 c7.960710048675537,-46.23189559139096 46.76917153596878,-116.88818885370544 85.57763302326202,-157.8862849441842 c74.63165670633316,-79.37929243050147 221.9047926068306,-102.05909026778758 442.81449645757675,-68.9116934286771 c370.1730172634125,54.95489475957793 717.4589931368828,83.74079201459494 1296.600649178028,106.42058985188108 c303.50207060575485,11.339898918643065 1672.7441989779472,6.106099417730881 2007.0940210223198,-8.722999168186973 c1152.312779545784,-49.72109525866575 1881.71283775568,-107.29288976869978 2346.4192868471146,-184.92758236556384 c59.70532536506653,-9.59529908500567 109.45976316928864,-16.57369841955525 111.44994068145752,-14.829098585917855 c17.91159760951996,14.829098585917855 64.68076914548874,109.90978951915586 64.68076914548874,129.9726876059859 c0,86.35769176505104 -96.52360934019089,154.39708527690942 -290.5659167766571,206.73508028603126 c-94.533431828022,26.16899750456092 -192.05212992429733,42.74269592411617 -416.94218879938126,71.52859317913318 c-198.02266246080399,25.296697587742223 -239.81639021635056,35.76429658956659 -277.62976294755936,72.40089309595189 c-30.847751438617706,27.913597338198315 -19.901775121688843,68.03939351185839 34.828106462955475,129.9726876059859 c24.877218902111053,27.913597338198315 41.79372775554657,50.593395175484446 36.81828397512436,49.72109525866575 c-3.9803550243377686,0 -42.78881651163101,-9.59529908500567 -86.57272177934647,-21.807497920467434 z" id="svg_5"/>
<path d="M6898.316406368962,5779.28456444923 c-67.66603541374207,-15.701398502736552 -111.44994068145752,-49.72109525866575 -146.278047144413,-112.52668926961195 c-31.84284019470215,-55.82719467639663 -66.67094665765762,-170.098483779646 -55.72497034072876,-179.69378286465167 c3.9803550243377686,-2.616899750456092 14.926331341266632,4.361499584093487 25.872307658195496,16.57369841955525 c74.63165670633316,84.61309193141363 114.43520694971085,122.12198835461763 196.0324849486351,184.05528244874515 c49.75443780422211,38.38119634002268 91.54816555976868,75.01779284640797 91.54816555976868,81.99619218095755 c0,23.552097754104828 -38.80846148729324,27.041297421379618 -111.44994068145752,9.59529908500567 z" id="svg_6"/>
<path d="M5748.988893091431,5759.2216663624 c-3.9803550243377686,-9.59529908500567 4.975443780422211,-22.67979783728613 27.86248517036438,-40.12579617366008 c122.39591699838638,-91.59149126596321 194.04230743646622,-154.39708527690942 229.86550265550613,-198.884381034663 c22.88704138994217,-27.913597338198315 44.778994023799896,-48.84879534184705 49.75443780422211,-44.487295757753564 c8.95579880475998,7.850699251368276 -15.921420097351074,104.67599001824368 -42.78881651163101,163.9923843619151 c-36.81828397512436,80.25159234732016 -124.38609451055527,134.33418719007938 -219.9146150946617,134.33418719007938 c-26.867396414279938,0 -40.79863899946213,-4.361499584093487 -44.778994023799896,-14.829098585917855 z" id="svg_7"/>
</g></g></svg>